solid crack
   facet normal 7.795520e-001 6.263375e-001 0.000000e+000
      outer loop
         vertex 2.245510e+001 8.735094e+000 1.100000e+001
         vertex 2.245510e+001 8.735094e+000 3.000000e+000
         vertex 2.245292e+001 8.738147e+000 3.000000e+000
      endloop
   endfacet
   facet normal 7.417266e-001 6.707025e-001 0.000000e+000
      outer loop
         vertex 2.245510e+001 8.735094e+000 1.100000e+001
         vertex 2.245292e+001 8.738147e+000 3.000000e+000
         vertex 2.245292e+001 8.738147e+000 1.100000e+001
      endloop
   endfacet
   facet normal 5.183191e-001 8.551872e-001 0.000000e+000
      outer loop
         vertex 2.245292e+001 8.738147e+000 1.100000e+001
         vertex 2.245292e+001 8.738147e+000 3.000000e+000
         vertex 2.245030e+001 8.739289e+000 3.000000e+000
      endloop
   endfacet
   facet normal 4.676012e-001 8.839395e-001 0.000000e+000
      outer loop
         vertex 2.245292e+001 8.738147e+000 1.100000e+001
         vertex 2.245030e+001 8.739289e+000 3.000000e+000
         vertex 2.245030e+001 8.739289e+000 1.100000e+001
      endloop
   endfacet
   facet normal 1.945694e-001 9.808888e-001 0.000000e+000
      outer loop
         vertex 2.245030e+001 8.739289e+000 1.100000e+001
         vertex 2.245030e+001 8.739289e+000 3.000000e+000
         vertex 2.244775e+001 8.739698e+000 3.000000e+000
      endloop
   endfacet
   facet normal 1.370763e-001 9.905605e-001 0.000000e+000
      outer loop
         vertex 2.245030e+001 8.739289e+000 1.100000e+001
         vertex 2.244775e+001 8.739698e+000 3.000000e+000
         vertex 2.244775e+001 8.739698e+000 1.100000e+001
      endloop
   endfacet
   facet normal 2.128392e-002 9.997734e-001 0.000000e+000
      outer loop
         vertex 2.244775e+001 8.739698e+000 1.100000e+001
         vertex 2.244775e+001 8.739698e+000 3.000000e+000
         vertex 2.244284e+001 8.739606e+000 3.000000e+000
      endloop
   endfacet
   facet normal -3.701526e-002 9.993147e-001 0.000000e+000
      outer loop
         vertex 2.244775e+001 8.739698e+000 1.100000e+001
         vertex 2.244284e+001 8.739606e+000 3.000000e+000
         vertex 2.244284e+001 8.739606e+000 1.100000e+001
      endloop
   endfacet
   facet normal -1.526483e-001 9.882805e-001 0.000000e+000
      outer loop
         vertex 2.244284e+001 8.739606e+000 1.100000e+001
         vertex 2.244284e+001 8.739606e+000 3.000000e+000
         vertex 2.243044e+001 8.737109e+000 3.000000e+000
      endloop
   endfacet
   facet normal -2.099821e-001 9.777052e-001 0.000000e+000
      outer loop
         vertex 2.244284e+001 8.739606e+000 1.100000e+001
         vertex 2.243044e+001 8.737109e+000 3.000000e+000
         vertex 2.243044e+001 8.737109e+000 1.100000e+001
      endloop
   endfacet
   facet normal -3.203954e-001 9.472839e-001 0.000000e+000
      outer loop
         vertex 2.243044e+001 8.737109e+000 1.100000e+001
         vertex 2.243044e+001 8.737109e+000 3.000000e+000
         vertex 2.237722e+001 8.715833e+000 3.000000e+000
      endloop
   endfacet
   facet normal -3.735251e-001 9.276201e-001 0.000000e+000
      outer loop
         vertex 2.243044e+001 8.737109e+000 1.100000e+001
         vertex 2.237722e+001 8.715833e+000 3.000000e+000
         vertex 2.237722e+001 8.715833e+000 1.100000e+001
      endloop
   endfacet
   facet normal -4.437985e-001 8.961266e-001 0.000000e+000
      outer loop
         vertex 2.237722e+001 8.715833e+000 1.100000e+001
         vertex 2.237722e+001 8.715833e+000 3.000000e+000
         vertex 2.229520e+001 8.673558e+000 3.000000e+000
      endloop
   endfacet
   facet normal -4.621253e-001 8.868146e-001 0.000000e+000
      outer loop
         vertex 2.237722e+001 8.715833e+000 1.100000e+001
         vertex 2.229520e+001 8.673558e+000 3.000000e+000
         vertex 2.229520e+001 8.673558e+000 1.100000e+001
      endloop
   endfacet
   facet normal -4.896739e-001 8.719056e-001 0.000000e+000
      outer loop
         vertex 2.229520e+001 8.673558e+000 1.100000e+001
         vertex 2.229520e+001 8.673558e+000 3.000000e+000
         vertex 2.218557e+001 8.610899e+000 3.000000e+000
      endloop
   endfacet
   facet normal -4.990428e-001 8.665773e-001 0.000000e+000
      outer loop
         vertex 2.229520e+001 8.673558e+000 1.100000e+001
         vertex 2.218557e+001 8.610899e+000 3.000000e+000
         vertex 2.218557e+001 8.610899e+000 1.100000e+001
      endloop
   endfacet
   facet normal -5.141810e-001 8.576817e-001 0.000000e+000
      outer loop
         vertex 2.218557e+001 8.610899e+000 1.100000e+001
         vertex 2.218557e+001 8.610899e+000 3.000000e+000
         vertex 2.204992e+001 8.528768e+000 3.000000e+000
      endloop
   endfacet
   facet normal -5.199859e-001 8.541748e-001 0.000000e+000
      outer loop
         vertex 2.218557e+001 8.610899e+000 1.100000e+001
         vertex 2.204992e+001 8.528768e+000 3.000000e+000
         vertex 2.204992e+001 8.528768e+000 1.100000e+001
      endloop
   endfacet
   facet normal -5.298213e-001 8.481094e-001 0.000000e+000
      outer loop
         vertex 2.204992e+001 8.528768e+000 1.100000e+001
         vertex 2.204992e+001 8.528768e+000 3.000000e+000
         vertex 2.189023e+001 8.428357e+000 3.000000e+000
      endloop
   endfacet
   facet normal -5.338638e-001 8.455704e-001 0.000000e+000
      outer loop
         vertex 2.204992e+001 8.528768e+000 1.100000e+001
         vertex 2.189023e+001 8.428357e+000 3.000000e+000
         vertex 2.189023e+001 8.428357e+000 1.100000e+001
      endloop
   endfacet
   facet normal -5.409531e-001 8.410528e-001 0.000000e+000
      outer loop
         vertex 2.189023e+001 8.428357e+000 1.100000e+001
         vertex 2.189023e+001 8.428357e+000 3.000000e+000
         vertex 2.170882e+001 8.311125e+000 3.000000e+000
      endloop
   endfacet
   facet normal -5.440049e-001 8.390821e-001 0.000000e+000
      outer loop
         vertex 2.189023e+001 8.428357e+000 1.100000e+001
         vertex 2.170882e+001 8.311125e+000 3.000000e+000
         vertex 2.170882e+001 8.311125e+000 1.100000e+001
      endloop
   endfacet
   facet normal -5.495017e-001 8.354926e-001 0.000000e+000
      outer loop
         vertex 2.170882e+001 8.311125e+000 1.100000e+001
         vertex 2.170882e+001 8.311125e+000 3.000000e+000
         vertex 2.150833e+001 8.178776e+000 3.000000e+000
      endloop
   endfacet
   facet normal -5.519493e-001 8.338776e-001 0.000000e+000
      outer loop
         vertex 2.170882e+001 8.311125e+000 1.100000e+001
         vertex 2.150833e+001 8.178776e+000 3.000000e+000
         vertex 2.150833e+001 8.178776e+000 1.100000e+001
      endloop
   endfacet
   facet normal -5.564561e-001 8.308770e-001 0.000000e+000
      outer loop
         vertex 2.150833e+001 8.178776e+000 1.100000e+001
         vertex 2.150833e+001 8.178776e+000 3.000000e+000
         vertex 2.129165e+001 8.033233e+000 3.000000e+000
      endloop
   endfacet
   facet normal -5.585166e-001 8.294933e-001 0.000000e+000
      outer loop
         vertex 2.150833e+001 8.178776e+000 1.100000e+001
         vertex 2.129165e+001 8.033233e+000 3.000000e+000
         vertex 2.129165e+001 8.033233e+000 1.100000e+001
      endloop
   endfacet
   facet normal -5.623829e-001 8.268770e-001 0.000000e+000
      outer loop
         vertex 2.129165e+001 8.033233e+000 1.100000e+001
         vertex 2.129165e+001 8.033233e+000 3.000000e+000
         vertex 2.106195e+001 7.876610e+000 3.000000e+000
      endloop
   endfacet
   facet normal -5.641894e-001 8.256454e-001 0.000000e+000
      outer loop
         vertex 2.129165e+001 8.033233e+000 1.100000e+001
         vertex 2.106195e+001 7.876610e+000 3.000000e+000
         vertex 2.106195e+001 7.876610e+000 1.100000e+001
      endloop
   endfacet
   facet normal -5.676370e-001 8.232790e-001 0.000000e+000
      outer loop
         vertex 2.106195e+001 7.876610e+000 1.100000e+001
         vertex 2.106195e+001 7.876610e+000 3.000000e+000
         vertex 2.082257e+001 7.711185e+000 3.000000e+000
      endloop
   endfacet
   facet normal -5.692785e-001 8.221448e-001 0.000000e+000
      outer loop
         vertex 2.106195e+001 7.876610e+000 1.100000e+001
         vertex 2.082257e+001 7.711185e+000 3.000000e+000
         vertex 2.082257e+001 7.711185e+000 1.100000e+001
      endloop
   endfacet
   facet normal -5.724600e-001 8.199326e-001 0.000000e+000
      outer loop
         vertex 2.082257e+001 7.711185e+000 1.100000e+001
         vertex 2.082257e+001 7.711185e+000 3.000000e+000
         vertex 2.057697e+001 7.539360e+000 3.000000e+000
      endloop
   endfacet
   facet normal -5.740003e-001 8.188551e-001 0.000000e+000
      outer loop
         vertex 2.082257e+001 7.711185e+000 1.100000e+001
         vertex 2.057697e+001 7.539360e+000 3.000000e+000
         vertex 2.057697e+001 7.539360e+000 1.100000e+001
      endloop
   endfacet
   facet normal -5.770307e-001 8.167225e-001 0.000000e+000
      outer loop
         vertex 2.057697e+001 7.539360e+000 1.100000e+001
         vertex 2.057697e+001 7.539360e+000 3.000000e+000
         vertex 2.032873e+001 7.363632e+000 3.000000e+000
      endloop
   endfacet
   facet normal -5.785207e-001 8.156677e-001 0.000000e+000
      outer loop
         vertex 2.057697e+001 7.539360e+000 1.100000e+001
         vertex 2.032873e+001 7.363632e+000 3.000000e+000
         vertex 2.032873e+001 7.363632e+000 1.100000e+001
      endloop
   endfacet
   facet normal -5.814951e-001 8.135499e-001 0.000000e+000
      outer loop
         vertex 2.032873e+001 7.363632e+000 1.100000e+001
         vertex 2.032873e+001 7.363632e+000 3.000000e+000
         vertex 2.008146e+001 7.186554e+000 3.000000e+000
      endloop
   endfacet
   facet normal -5.829794e-001 8.124869e-001 0.000000e+000
      outer loop
         vertex 2.032873e+001 7.363632e+000 1.100000e+001
         vertex 2.008146e+001 7.186554e+000 3.000000e+000
         vertex 2.008146e+001 7.186554e+000 1.100000e+001
      endloop
   endfacet
   facet normal -5.859863e-001 8.103210e-001 0.000000e+000
      outer loop
         vertex 2.008146e+001 7.186554e+000 1.100000e+001
         vertex 2.008146e+001 7.186554e+000 3.000000e+000
         vertex 1.983875e+001 7.010700e+000 3.000000e+000
      endloop
   endfacet
   facet normal -5.875087e-001 8.092179e-001 0.000000e+000
      outer loop
         vertex 2.008146e+001 7.186554e+000 1.100000e+001
         vertex 1.983875e+001 7.010700e+000 3.000000e+000
         vertex 1.983875e+001 7.010700e+000 1.100000e+001
      endloop
   endfacet
   facet normal -5.906404e-001 8.069350e-001 0.000000e+000
      outer loop
         vertex 1.983875e+001 7.010700e+000 1.100000e+001
         vertex 1.983875e+001 7.010700e+000 3.000000e+000
         vertex 1.960412e+001 6.838625e+000 3.000000e+000
      endloop
   endfacet
   facet normal -5.922493e-001 8.057548e-001 0.000000e+000
      outer loop
         vertex 1.983875e+001 7.010700e+000 1.100000e+001
         vertex 1.960412e+001 6.838625e+000 3.000000e+000
         vertex 1.960412e+001 6.838625e+000 1.100000e+001
      endloop
   endfacet
   facet normal -5.956141e-001 8.032708e-001 0.000000e+000
      outer loop
         vertex 1.960412e+001 6.838625e+000 1.100000e+001
         vertex 1.960412e+001 6.838625e+000 3.000000e+000
         vertex 1.938099e+001 6.672828e+000 3.000000e+000
      endloop
   endfacet
   facet normal -5.973693e-001 8.019662e-001 0.000000e+000
      outer loop
         vertex 1.960412e+001 6.838625e+000 1.100000e+001
         vertex 1.938099e+001 6.672828e+000 3.000000e+000
         vertex 1.938099e+001 6.672828e+000 1.100000e+001
      endloop
   endfacet
   facet normal -6.011076e-001 7.991681e-001 0.000000e+000
      outer loop
         vertex 1.938099e+001 6.672828e+000 1.100000e+001
         vertex 1.938099e+001 6.672828e+000 3.000000e+000
         vertex 1.917260e+001 6.515719e+000 3.000000e+000
      endloop
   endfacet
   facet normal -6.030898e-001 7.976733e-001 0.000000e+000
      outer loop
         vertex 1.938099e+001 6.672828e+000 1.100000e+001
         vertex 1.917260e+001 6.515719e+000 3.000000e+000
         vertex 1.917260e+001 6.515719e+000 1.100000e+001
      endloop
   endfacet
   facet normal -6.074011e-001 7.943953e-001 0.000000e+000
      outer loop
         vertex 1.917260e+001 6.515719e+000 1.100000e+001
         vertex 1.917260e+001 6.515719e+000 3.000000e+000
         vertex 1.898197e+001 6.369583e+000 3.000000e+000
      endloop
   endfacet
   facet normal -6.097289e-001 7.926100e-001 0.000000e+000
      outer loop
         vertex 1.917260e+001 6.515719e+000 1.100000e+001
         vertex 1.898197e+001 6.369583e+000 3.000000e+000
         vertex 1.898197e+001 6.369583e+000 1.100000e+001
      endloop
   endfacet
   facet normal -6.149215e-001 7.885884e-001 0.000000e+000
      outer loop
         vertex 1.898197e+001 6.369583e+000 1.100000e+001
         vertex 1.898197e+001 6.369583e+000 3.000000e+000
         vertex 1.881187e+001 6.236540e+000 3.000000e+000
      endloop
   endfacet
   facet normal -6.177834e-001 7.863483e-001 0.000000e+000
      outer loop
         vertex 1.898197e+001 6.369583e+000 1.100000e+001
         vertex 1.881187e+001 6.236540e+000 3.000000e+000
         vertex 1.881187e+001 6.236540e+000 1.100000e+001
      endloop
   endfacet
   facet normal -6.243753e-001 7.811245e-001 0.000000e+000
      outer loop
         vertex 1.881187e+001 6.236540e+000 1.100000e+001
         vertex 1.881187e+001 6.236540e+000 3.000000e+000
         vertex 1.866479e+001 6.118525e+000 3.000000e+000
      endloop
   endfacet
   facet normal -6.280993e-001 7.781332e-001 0.000000e+000
      outer loop
         vertex 1.881187e+001 6.236540e+000 1.100000e+001
         vertex 1.866479e+001 6.118525e+000 3.000000e+000
         vertex 1.866479e+001 6.118525e+000 1.100000e+001
      endloop
   endfacet
   facet normal -6.370549e-001 7.708185e-001 0.000000e+000
      outer loop
         vertex 1.866479e+001 6.118525e+000 1.100000e+001
         vertex 1.866479e+001 6.118525e+000 3.000000e+000
         vertex 1.854285e+001 6.017253e+000 3.000000e+000
      endloop
   endfacet
   facet normal -6.422719e-001 7.664769e-001 0.000000e+000
      outer loop
         vertex 1.866479e+001 6.118525e+000 1.100000e+001
         vertex 1.854285e+001 6.017253e+000 3.000000e+000
         vertex 1.854285e+001 6.017253e+000 1.100000e+001
      endloop
   endfacet
   facet normal -6.556427e-001 7.550713e-001 0.000000e+000
      outer loop
         vertex 1.854285e+001 6.017253e+000 1.100000e+001
         vertex 1.854285e+001 6.017253e+000 3.000000e+000
         vertex 1.844782e+001 5.934196e+000 3.000000e+000
      endloop
   endfacet
   facet normal -6.637511e-001 7.479535e-001 0.000000e+000
      outer loop
         vertex 1.854285e+001 6.017253e+000 1.100000e+001
         vertex 1.844782e+001 5.934196e+000 3.000000e+000
         vertex 1.844782e+001 5.934196e+000 1.100000e+001
      endloop
   endfacet
   facet normal -6.868821e-001 7.267690e-001 0.000000e+000
      outer loop
         vertex 1.844782e+001 5.934196e+000 1.100000e+001
         vertex 1.844782e+001 5.934196e+000 3.000000e+000
         vertex 1.838109e+001 5.870558e+000 3.000000e+000
      endloop
   endfacet
   facet normal -7.016981e-001 7.124744e-001 0.000000e+000
      outer loop
         vertex 1.844782e+001 5.934196e+000 1.100000e+001
         vertex 1.838109e+001 5.870558e+000 3.000000e+000
         vertex 1.838109e+001 5.870558e+000 1.100000e+001
      endloop
   endfacet
   facet normal -7.545580e-001 6.562334e-001 0.000000e+000
      outer loop
         vertex 1.838109e+001 5.870558e+000 1.100000e+001
         vertex 1.838109e+001 5.870558e+000 3.000000e+000
         vertex 1.834363e+001 5.827267e+000 3.000000e+000
      endloop
   endfacet
   facet normal -7.905985e-001 6.123348e-001 0.000000e+000
      outer loop
         vertex 1.838109e+001 5.870558e+000 1.100000e+001
         vertex 1.834363e+001 5.827267e+000 3.000000e+000
         vertex 1.834363e+001 5.827267e+000 1.100000e+001
      endloop
   endfacet
   facet normal -8.555025e-001 5.177986e-001 0.000000e+000
      outer loop
         vertex 1.834363e+001 5.827267e+000 1.100000e+001
         vertex 1.834363e+001 5.827267e+000 3.000000e+000
         vertex 1.833724e+001 5.816404e+000 3.000000e+000
      endloop
   endfacet
   facet normal -8.842239e-001 4.670632e-001 0.000000e+000
      outer loop
         vertex 1.834363e+001 5.827267e+000 1.100000e+001
         vertex 1.833724e+001 5.816404e+000 3.000000e+000
         vertex 1.833724e+001 5.816404e+000 1.100000e+001
      endloop
   endfacet
   facet normal -9.324203e-001 3.613756e-001 0.000000e+000
      outer loop
         vertex 1.833724e+001 5.816404e+000 1.100000e+001
         vertex 1.833724e+001 5.816404e+000 3.000000e+000
         vertex 1.833556e+001 5.811809e+000 3.000000e+000
      endloop
   endfacet
   facet normal -9.518953e-001 3.064235e-001 0.000000e+000
      outer loop
         vertex 1.833724e+001 5.816404e+000 1.100000e+001
         vertex 1.833556e+001 5.811809e+000 3.000000e+000
         vertex 1.833556e+001 5.811809e+000 1.100000e+001
      endloop
   endfacet
   facet normal -9.810070e-001 1.939724e-001 0.000000e+000
      outer loop
         vertex 1.833556e+001 5.811809e+000 1.100000e+001
         vertex 1.833556e+001 5.811809e+000 3.000000e+000
         vertex 1.833512e+001 5.807616e+000 3.000000e+000
      endloop
   endfacet
   facet normal -9.906437e-001 1.364734e-001 0.000000e+000
      outer loop
         vertex 1.833556e+001 5.811809e+000 1.100000e+001
         vertex 1.833512e+001 5.807616e+000 3.000000e+000
         vertex 1.833512e+001 5.807616e+000 1.100000e+001
      endloop
   endfacet
   facet normal -9.881875e-001 -1.532497e-001 0.000000e+000
      outer loop
         vertex 1.833512e+001 5.807616e+000 1.100000e+001
         vertex 1.833512e+001 5.807616e+000 3.000000e+000
         vertex 1.833615e+001 5.804693e+000 3.000000e+000
      endloop
   endfacet
   facet normal -9.775773e-001 -2.105771e-001 0.000000e+000
      outer loop
         vertex 1.833512e+001 5.807616e+000 1.100000e+001
         vertex 1.833615e+001 5.804693e+000 3.000000e+000
         vertex 1.833615e+001 5.804693e+000 1.100000e+001
      endloop
   endfacet
   facet normal -5.177986e-001 -8.555025e-001 0.000000e+000
      outer loop
         vertex 1.833615e+001 5.804693e+000 1.100000e+001
         vertex 1.833615e+001 5.804693e+000 3.000000e+000
         vertex 1.833858e+001 5.802765e+000 3.000000e+000
      endloop
   endfacet
   facet normal -4.670632e-001 -8.842239e-001 0.000000e+000
      outer loop
         vertex 1.833615e+001 5.804693e+000 1.100000e+001
         vertex 1.833858e+001 5.802765e+000 3.000000e+000
         vertex 1.833858e+001 5.802765e+000 1.100000e+001
      endloop
   endfacet
   facet normal -1.939724e-001 -9.810070e-001 0.000000e+000
      outer loop
         vertex 1.833858e+001 5.802765e+000 1.100000e+001
         vertex 1.833858e+001 5.802765e+000 3.000000e+000
         vertex 1.834270e+001 5.801812e+000 3.000000e+000
      endloop
   endfacet
   facet normal -1.364734e-001 -9.906437e-001 0.000000e+000
      outer loop
         vertex 1.833858e+001 5.802765e+000 1.100000e+001
         vertex 1.834270e+001 5.801812e+000 3.000000e+000
         vertex 1.834270e+001 5.801812e+000 1.100000e+001
      endloop
   endfacet
   facet normal -2.067547e-002 -9.997863e-001 0.000000e+000
      outer loop
         vertex 1.834270e+001 5.801812e+000 1.100000e+001
         vertex 1.834270e+001 5.801812e+000 3.000000e+000
         vertex 1.834762e+001 5.801907e+000 3.000000e+000
      endloop
   endfacet
   facet normal 3.762342e-002 -9.992920e-001 0.000000e+000
      outer loop
         vertex 1.834270e+001 5.801812e+000 1.100000e+001
         vertex 1.834762e+001 5.801907e+000 3.000000e+000
         vertex 1.834762e+001 5.801907e+000 1.100000e+001
      endloop
   endfacet
   facet normal 1.532497e-001 -9.881875e-001 0.000000e+000
      outer loop
         vertex 1.834762e+001 5.801907e+000 1.100000e+001
         vertex 1.834762e+001 5.801907e+000 3.000000e+000
         vertex 1.836007e+001 5.804421e+000 3.000000e+000
      endloop
   endfacet
   facet normal 2.105771e-001 -9.775773e-001 0.000000e+000
      outer loop
         vertex 1.834762e+001 5.801907e+000 1.100000e+001
         vertex 1.836007e+001 5.804421e+000 3.000000e+000
         vertex 1.836007e+001 5.804421e+000 1.100000e+001
      endloop
   endfacet
   facet normal 3.208348e-001 -9.471352e-001 0.000000e+000
      outer loop
         vertex 1.836007e+001 5.804421e+000 1.100000e+001
         vertex 1.836007e+001 5.804421e+000 3.000000e+000
         vertex 1.841335e+001 5.825739e+000 3.000000e+000
      endloop
   endfacet
   facet normal 3.738201e-001 -9.275013e-001 0.000000e+000
      outer loop
         vertex 1.836007e+001 5.804421e+000 1.100000e+001
         vertex 1.841335e+001 5.825739e+000 3.000000e+000
         vertex 1.841335e+001 5.825739e+000 1.100000e+001
      endloop
   endfacet
   facet normal 4.439264e-001 -8.960632e-001 0.000000e+000
      outer loop
         vertex 1.841335e+001 5.825739e+000 1.100000e+001
         vertex 1.841335e+001 5.825739e+000 3.000000e+000
         vertex 1.849543e+001 5.868055e+000 3.000000e+000
      endloop
   endfacet
   facet normal 4.622246e-001 -8.867629e-001 0.000000e+000
      outer loop
         vertex 1.841335e+001 5.825739e+000 1.100000e+001
         vertex 1.849543e+001 5.868055e+000 3.000000e+000
         vertex 1.849543e+001 5.868055e+000 1.100000e+001
      endloop
   endfacet
   facet normal 4.897350e-001 -8.718714e-001 0.000000e+000
      outer loop
         vertex 1.849543e+001 5.868055e+000 1.100000e+001
         vertex 1.849543e+001 5.868055e+000 3.000000e+000
         vertex 1.860511e+001 5.930752e+000 3.000000e+000
      endloop
   endfacet
   facet normal 4.990939e-001 -8.665479e-001 0.000000e+000
      outer loop
         vertex 1.849543e+001 5.868055e+000 1.100000e+001
         vertex 1.860511e+001 5.930752e+000 3.000000e+000
         vertex 1.860511e+001 5.930752e+000 1.100000e+001
      endloop
   endfacet
   facet normal 5.142176e-001 -8.576598e-001 0.000000e+000
      outer loop
         vertex 1.860511e+001 5.930752e+000 1.100000e+001
         vertex 1.860511e+001 5.930752e+000 3.000000e+000
         vertex 1.874080e+001 6.012920e+000 3.000000e+000
      endloop
   endfacet
   facet normal 5.200179e-001 -8.541554e-001 0.000000e+000
      outer loop
         vertex 1.860511e+001 5.930752e+000 1.100000e+001
         vertex 1.874080e+001 6.012920e+000 3.000000e+000
         vertex 1.874080e+001 6.012920e+000 1.100000e+001
      endloop
   endfacet
   facet normal 5.298461e-001 -8.480938e-001 0.000000e+000
      outer loop
         vertex 1.874080e+001 6.012920e+000 1.100000e+001
         vertex 1.874080e+001 6.012920e+000 3.000000e+000
         vertex 1.890053e+001 6.113365e+000 3.000000e+000
      endloop
   endfacet
   facet normal 5.338862e-001 -8.455563e-001 0.000000e+000
      outer loop
         vertex 1.874080e+001 6.012920e+000 1.100000e+001
         vertex 1.890053e+001 6.113365e+000 3.000000e+000
         vertex 1.890053e+001 6.113365e+000 1.100000e+001
      endloop
   endfacet
   facet normal 5.409716e-001 -8.410409e-001 0.000000e+000
      outer loop
         vertex 1.890053e+001 6.113365e+000 1.100000e+001
         vertex 1.890053e+001 6.113365e+000 3.000000e+000
         vertex 1.908198e+001 6.230626e+000 3.000000e+000
      endloop
   endfacet
   facet normal 5.440218e-001 -8.390710e-001 0.000000e+000
      outer loop
         vertex 1.890053e+001 6.113365e+000 1.100000e+001
         vertex 1.908198e+001 6.230626e+000 3.000000e+000
         vertex 1.908198e+001 6.230626e+000 1.100000e+001
      endloop
   endfacet
   facet normal 5.495164e-001 -8.354829e-001 0.000000e+000
      outer loop
         vertex 1.908198e+001 6.230626e+000 1.100000e+001
         vertex 1.908198e+001 6.230626e+000 3.000000e+000
         vertex 1.928251e+001 6.363003e+000 3.000000e+000
      endloop
   endfacet
   facet normal 5.519631e-001 -8.338686e-001 0.000000e+000
      outer loop
         vertex 1.908198e+001 6.230626e+000 1.100000e+001
         vertex 1.928251e+001 6.363003e+000 3.000000e+000
         vertex 1.928251e+001 6.363003e+000 1.100000e+001
      endloop
   endfacet
   facet normal 5.564683e-001 -8.308688e-001 0.000000e+000
      outer loop
         vertex 1.928251e+001 6.363003e+000 1.100000e+001
         vertex 1.928251e+001 6.363003e+000 3.000000e+000
         vertex 1.949922e+001 6.508570e+000 3.000000e+000
      endloop
   endfacet
   facet normal 5.585282e-001 -8.294855e-001 0.000000e+000
      outer loop
         vertex 1.928251e+001 6.363003e+000 1.100000e+001
         vertex 1.949922e+001 6.508570e+000 3.000000e+000
         vertex 1.949922e+001 6.508570e+000 1.100000e+001
      endloop
   endfacet
   facet normal 5.623935e-001 -8.268697e-001 0.000000e+000
      outer loop
         vertex 1.949922e+001 6.508570e+000 1.100000e+001
         vertex 1.949922e+001 6.508570e+000 3.000000e+000
         vertex 1.972894e+001 6.665211e+000 3.000000e+000
      endloop
   endfacet
   facet normal 5.641997e-001 -8.256384e-001 0.000000e+000
      outer loop
         vertex 1.949922e+001 6.508570e+000 1.100000e+001
         vertex 1.972894e+001 6.665211e+000 3.000000e+000
         vertex 1.972894e+001 6.665211e+000 1.100000e+001
      endloop
   endfacet
   facet normal 5.676466e-001 -8.232723e-001 0.000000e+000
      outer loop
         vertex 1.972894e+001 6.665211e+000 1.100000e+001
         vertex 1.972894e+001 6.665211e+000 3.000000e+000
         vertex 1.996834e+001 6.830651e+000 3.000000e+000
      endloop
   endfacet
   facet normal 5.692878e-001 -8.221383e-001 0.000000e+000
      outer loop
         vertex 1.972894e+001 6.665211e+000 1.100000e+001
         vertex 1.996834e+001 6.830651e+000 3.000000e+000
         vertex 1.996834e+001 6.830651e+000 1.100000e+001
      endloop
   endfacet
   facet normal 5.724689e-001 -8.199264e-001 0.000000e+000
      outer loop
         vertex 1.996834e+001 6.830651e+000 1.100000e+001
         vertex 1.996834e+001 6.830651e+000 3.000000e+000
         vertex 2.021394e+001 7.002486e+000 3.000000e+000
      endloop
   endfacet
   facet normal 5.740091e-001 -8.188489e-001 0.000000e+000
      outer loop
         vertex 1.996834e+001 6.830651e+000 1.100000e+001
         vertex 2.021394e+001 7.002486e+000 3.000000e+000
         vertex 2.021394e+001 7.002486e+000 1.100000e+001
      endloop
   endfacet
   facet normal 5.770393e-001 -8.167164e-001 0.000000e+000
      outer loop
         vertex 2.021394e+001 7.002486e+000 1.100000e+001
         vertex 2.021394e+001 7.002486e+000 3.000000e+000
         vertex 2.046218e+001 7.178219e+000 3.000000e+000
      endloop
   endfacet
   facet normal 5.785293e-001 -8.156616e-001 0.000000e+000
      outer loop
         vertex 2.021394e+001 7.002486e+000 1.100000e+001
         vertex 2.046218e+001 7.178219e+000 3.000000e+000
         vertex 2.046218e+001 7.178219e+000 1.100000e+001
      endloop
   endfacet
   facet normal 5.815037e-001 -8.135439e-001 0.000000e+000
      outer loop
         vertex 2.046218e+001 7.178219e+000 1.100000e+001
         vertex 2.046218e+001 7.178219e+000 3.000000e+000
         vertex 2.070945e+001 7.355297e+000 3.000000e+000
      endloop
   endfacet
   facet normal 5.829880e-001 -8.124807e-001 0.000000e+000
      outer loop
         vertex 2.046218e+001 7.178219e+000 1.100000e+001
         vertex 2.070945e+001 7.355297e+000 3.000000e+000
         vertex 2.070945e+001 7.355297e+000 1.100000e+001
      endloop
   endfacet
   facet normal 5.859950e-001 -8.103147e-001 0.000000e+000
      outer loop
         vertex 2.070945e+001 7.355297e+000 1.100000e+001
         vertex 2.070945e+001 7.355297e+000 3.000000e+000
         vertex 2.095215e+001 7.531147e+000 3.000000e+000
      endloop
   endfacet
   facet normal 5.875175e-001 -8.092115e-001 0.000000e+000
      outer loop
         vertex 2.070945e+001 7.355297e+000 1.100000e+001
         vertex 2.095215e+001 7.531147e+000 3.000000e+000
         vertex 2.095215e+001 7.531147e+000 1.100000e+001
      endloop
   endfacet
   facet normal 5.906495e-001 -8.069282e-001 0.000000e+000
      outer loop
         vertex 2.095215e+001 7.531147e+000 1.100000e+001
         vertex 2.095215e+001 7.531147e+000 3.000000e+000
         vertex 2.118676e+001 7.703213e+000 3.000000e+000
      endloop
   endfacet
   facet normal 5.922588e-001 -8.057479e-001 0.000000e+000
      outer loop
         vertex 2.095215e+001 7.531147e+000 1.100000e+001
         vertex 2.118676e+001 7.703213e+000 3.000000e+000
         vertex 2.118676e+001 7.703213e+000 1.100000e+001
      endloop
   endfacet
   facet normal 5.956240e-001 -8.032634e-001 0.000000e+000
      outer loop
         vertex 2.118676e+001 7.703213e+000 1.100000e+001
         vertex 2.118676e+001 7.703213e+000 3.000000e+000
         vertex 2.140986e+001 7.868994e+000 3.000000e+000
      endloop
   endfacet
   facet normal 5.973796e-001 -8.019586e-001 0.000000e+000
      outer loop
         vertex 2.118676e+001 7.703213e+000 1.100000e+001
         vertex 2.140986e+001 7.868994e+000 3.000000e+000
         vertex 2.140986e+001 7.868994e+000 1.100000e+001
      endloop
   endfacet
   facet normal 6.011188e-001 -7.991597e-001 0.000000e+000
      outer loop
         vertex 2.140986e+001 7.868994e+000 1.100000e+001
         vertex 2.140986e+001 7.868994e+000 3.000000e+000
         vertex 2.161823e+001 8.026084e+000 3.000000e+000
      endloop
   endfacet
   facet normal 6.031016e-001 -7.976644e-001 0.000000e+000
      outer loop
         vertex 2.140986e+001 7.868994e+000 1.100000e+001
         vertex 2.161823e+001 8.026084e+000 3.000000e+000
         vertex 2.161823e+001 8.026084e+000 1.100000e+001
      endloop
   endfacet
   facet normal 6.074142e-001 -7.943853e-001 0.000000e+000
      outer loop
         vertex 2.161823e+001 8.026084e+000 1.100000e+001
         vertex 2.161823e+001 8.026084e+000 3.000000e+000
         vertex 2.180882e+001 8.172197e+000 3.000000e+000
      endloop
   endfacet
   facet normal 6.097428e-001 -7.925993e-001 0.000000e+000
      outer loop
         vertex 2.161823e+001 8.026084e+000 1.100000e+001
         vertex 2.180882e+001 8.172197e+000 3.000000e+000
         vertex 2.180882e+001 8.172197e+000 1.100000e+001
      endloop
   endfacet
   facet normal 6.149374e-001 -7.885759e-001 0.000000e+000
      outer loop
         vertex 2.180882e+001 8.172197e+000 1.100000e+001
         vertex 2.180882e+001 8.172197e+000 3.000000e+000
         vertex 2.197887e+001 8.305212e+000 3.000000e+000
      endloop
   endfacet
   facet normal 6.178007e-001 -7.863348e-001 0.000000e+000
      outer loop
         vertex 2.180882e+001 8.172197e+000 1.100000e+001
         vertex 2.197887e+001 8.305212e+000 3.000000e+000
         vertex 2.197887e+001 8.305212e+000 1.100000e+001
      endloop
   endfacet
   facet normal 6.243961e-001 -7.811078e-001 0.000000e+000
      outer loop
         vertex 2.197887e+001 8.305212e+000 1.100000e+001
         vertex 2.197887e+001 8.305212e+000 3.000000e+000
         vertex 2.212591e+001 8.423198e+000 3.000000e+000
      endloop
   endfacet
   facet normal 6.281222e-001 -7.781147e-001 0.000000e+000
      outer loop
         vertex 2.197887e+001 8.305212e+000 1.100000e+001
         vertex 2.212591e+001 8.423198e+000 3.000000e+000
         vertex 2.212591e+001 8.423198e+000 1.100000e+001
      endloop
   endfacet
   facet normal 6.370838e-001 -7.707946e-001 0.000000e+000
      outer loop
         vertex 2.212591e+001 8.423198e+000 1.100000e+001
         vertex 2.212591e+001 8.423198e+000 3.000000e+000
         vertex 2.224780e+001 8.524437e+000 3.000000e+000
      endloop
   endfacet
   facet normal 6.423045e-001 -7.664495e-001 0.000000e+000
      outer loop
         vertex 2.212591e+001 8.423198e+000 1.100000e+001
         vertex 2.224780e+001 8.524437e+000 3.000000e+000
         vertex 2.224780e+001 8.524437e+000 1.100000e+001
      endloop
   endfacet
   facet normal 6.556873e-001 -7.550326e-001 0.000000e+000
      outer loop
         vertex 2.224780e+001 8.524437e+000 1.100000e+001
         vertex 2.224780e+001 8.524437e+000 3.000000e+000
         vertex 2.234277e+001 8.607458e+000 3.000000e+000
      endloop
   endfacet
   facet normal 6.638036e-001 -7.479070e-001 0.000000e+000
      outer loop
         vertex 2.224780e+001 8.524437e+000 1.100000e+001
         vertex 2.234277e+001 8.607458e+000 3.000000e+000
         vertex 2.234277e+001 8.607458e+000 1.100000e+001
      endloop
   endfacet
   facet normal 6.869636e-001 -7.266918e-001 0.000000e+000
      outer loop
         vertex 2.234277e+001 8.607458e+000 1.100000e+001
         vertex 2.234277e+001 8.607458e+000 3.000000e+000
         vertex 2.240945e+001 8.671057e+000 3.000000e+000
      endloop
   endfacet
   facet normal 7.018002e-001 -7.123739e-001 0.000000e+000
      outer loop
         vertex 2.234277e+001 8.607458e+000 1.100000e+001
         vertex 2.240945e+001 8.671057e+000 3.000000e+000
         vertex 2.240945e+001 8.671057e+000 1.100000e+001
      endloop
   endfacet
   facet normal 7.547678e-001 -6.559920e-001 0.000000e+000
      outer loop
         vertex 2.240945e+001 8.671057e+000 1.100000e+001
         vertex 2.240945e+001 8.671057e+000 3.000000e+000
         vertex 2.244685e+001 8.714309e+000 3.000000e+000
      endloop
   endfacet
   facet normal 7.908843e-001 -6.119657e-001 0.000000e+000
      outer loop
         vertex 2.240945e+001 8.671057e+000 1.100000e+001
         vertex 2.244685e+001 8.714309e+000 3.000000e+000
         vertex 2.244685e+001 8.714309e+000 1.100000e+001
      endloop
   endfacet
   facet normal 8.558196e-001 -5.172744e-001 0.000000e+000
      outer loop
         vertex 2.244685e+001 8.714309e+000 1.100000e+001
         vertex 2.244685e+001 8.714309e+000 3.000000e+000
         vertex 2.245320e+001 8.725131e+000 3.000000e+000
      endloop
   endfacet
   facet normal 8.845099e-001 -4.665214e-001 0.000000e+000
      outer loop
         vertex 2.244685e+001 8.714309e+000 1.100000e+001
         vertex 2.245320e+001 8.725131e+000 3.000000e+000
         vertex 2.245320e+001 8.725131e+000 1.100000e+001
      endloop
   endfacet
   facet normal 9.326415e-001 -3.608043e-001 0.000000e+000
      outer loop
         vertex 2.245320e+001 8.725131e+000 1.100000e+001
         vertex 2.245320e+001 8.725131e+000 3.000000e+000
         vertex 2.245488e+001 8.729715e+000 3.000000e+000
      endloop
   endfacet
   facet normal 9.520828e-001 -3.058403e-001 0.000000e+000
      outer loop
         vertex 2.245320e+001 8.725131e+000 1.100000e+001
         vertex 2.245488e+001 8.729715e+000 3.000000e+000
         vertex 2.245488e+001 8.729715e+000 1.100000e+001
      endloop
   endfacet
   facet normal 9.811256e-001 -1.933714e-001 0.000000e+000
      outer loop
         vertex 2.245488e+001 8.729715e+000 1.100000e+001
         vertex 2.245488e+001 8.729715e+000 3.000000e+000
         vertex 2.245532e+001 8.732252e+000 3.000000e+000
      endloop
   endfacet
   facet normal 9.907272e-001 -1.358665e-001 0.000000e+000
      outer loop
         vertex 2.245488e+001 8.729715e+000 1.100000e+001
         vertex 2.245532e+001 8.732252e+000 3.000000e+000
         vertex 2.245532e+001 8.732252e+000 1.100000e+001
      endloop
   endfacet
   facet normal 9.880934e-001 1.538550e-001 0.000000e+000
      outer loop
         vertex 2.245532e+001 8.732252e+000 1.100000e+001
         vertex 2.245532e+001 8.732252e+000 3.000000e+000
         vertex 2.245510e+001 8.735094e+000 3.000000e+000
      endloop
   endfacet
   facet normal 9.774480e-001 2.111759e-001 0.000000e+000
      outer loop
         vertex 2.245532e+001 8.732252e+000 1.100000e+001
         vertex 2.245510e+001 8.735094e+000 3.000000e+000
         vertex 2.245510e+001 8.735094e+000 1.100000e+001
      endloop
   endfacet
   facet normal 0.000000e+000 0.000000e+000 1.000000e+000
      outer loop
         vertex 2.240945e+001 8.671057e+000 1.100000e+001
         vertex 2.245532e+001 8.732252e+000 1.100000e+001
         vertex 2.245510e+001 8.735094e+000 1.100000e+001
      endloop
   endfacet
   facet normal 0.000000e+000 0.000000e+000 1.000000e+000
      outer loop
         vertex 2.245510e+001 8.735094e+000 1.100000e+001
         vertex 2.245292e+001 8.738147e+000 1.100000e+001
         vertex 2.240945e+001 8.671057e+000 1.100000e+001
      endloop
   endfacet
   facet normal 0.000000e+000 0.000000e+000 1.000000e+000
      outer loop
         vertex 2.240945e+001 8.671057e+000 1.100000e+001
         vertex 2.245292e+001 8.738147e+000 1.100000e+001
         vertex 2.245030e+001 8.739289e+000 1.100000e+001
      endloop
   endfacet
   facet normal 0.000000e+000 0.000000e+000 1.000000e+000
      outer loop
         vertex 1.838109e+001 5.870558e+000 1.100000e+001
         vertex 1.833512e+001 5.807616e+000 1.100000e+001
         vertex 1.833615e+001 5.804693e+000 1.100000e+001
      endloop
   endfacet
   facet normal 0.000000e+000 0.000000e+000 1.000000e+000
      outer loop
         vertex 1.838109e+001 5.870558e+000 1.100000e+001
         vertex 1.833615e+001 5.804693e+000 1.100000e+001
         vertex 1.833858e+001 5.802765e+000 1.100000e+001
      endloop
   endfacet
   facet normal 0.000000e+000 0.000000e+000 1.000000e+000
      outer loop
         vertex 2.244685e+001 8.714309e+000 1.100000e+001
         vertex 2.245320e+001 8.725131e+000 1.100000e+001
         vertex 2.240945e+001 8.671057e+000 1.100000e+001
      endloop
   endfacet
   facet normal 0.000000e+000 0.000000e+000 1.000000e+000
      outer loop
         vertex 2.240945e+001 8.671057e+000 1.100000e+001
         vertex 2.245320e+001 8.725131e+000 1.100000e+001
         vertex 2.245488e+001 8.729715e+000 1.100000e+001
      endloop
   endfacet
   facet normal 0.000000e+000 0.000000e+000 1.000000e+000
      outer loop
         vertex 2.240945e+001 8.671057e+000 1.100000e+001
         vertex 2.245488e+001 8.729715e+000 1.100000e+001
         vertex 2.245532e+001 8.732252e+000 1.100000e+001
      endloop
   endfacet
   facet normal 0.000000e+000 0.000000e+000 1.000000e+000
      outer loop
         vertex 2.240945e+001 8.671057e+000 1.100000e+001
         vertex 2.245030e+001 8.739289e+000 1.100000e+001
         vertex 2.244775e+001 8.739698e+000 1.100000e+001
      endloop
   endfacet
   facet normal 0.000000e+000 0.000000e+000 1.000000e+000
      outer loop
         vertex 2.240945e+001 8.671057e+000 1.100000e+001
         vertex 2.244775e+001 8.739698e+000 1.100000e+001
         vertex 2.244284e+001 8.739606e+000 1.100000e+001
      endloop
   endfacet
   facet normal 0.000000e+000 0.000000e+000 1.000000e+000
      outer loop
         vertex 1.834363e+001 5.827267e+000 1.100000e+001
         vertex 1.833724e+001 5.816404e+000 1.100000e+001
         vertex 1.838109e+001 5.870558e+000 1.100000e+001
      endloop
   endfacet
   facet normal 0.000000e+000 0.000000e+000 1.000000e+000
      outer loop
         vertex 1.838109e+001 5.870558e+000 1.100000e+001
         vertex 1.833724e+001 5.816404e+000 1.100000e+001
         vertex 1.833556e+001 5.811809e+000 1.100000e+001
      endloop
   endfacet
   facet normal 0.000000e+000 0.000000e+000 1.000000e+000
      outer loop
         vertex 1.838109e+001 5.870558e+000 1.100000e+001
         vertex 1.833556e+001 5.811809e+000 1.100000e+001
         vertex 1.833512e+001 5.807616e+000 1.100000e+001
      endloop
   endfacet
   facet normal 0.000000e+000 0.000000e+000 1.000000e+000
      outer loop
         vertex 1.838109e+001 5.870558e+000 1.100000e+001
         vertex 1.833858e+001 5.802765e+000 1.100000e+001
         vertex 1.834270e+001 5.801812e+000 1.100000e+001
      endloop
   endfacet
   facet normal 0.000000e+000 0.000000e+000 1.000000e+000
      outer loop
         vertex 1.838109e+001 5.870558e+000 1.100000e+001
         vertex 1.834270e+001 5.801812e+000 1.100000e+001
         vertex 1.834762e+001 5.801907e+000 1.100000e+001
      endloop
   endfacet
   facet normal 0.000000e+000 0.000000e+000 1.000000e+000
      outer loop
         vertex 2.244284e+001 8.739606e+000 1.100000e+001
         vertex 2.243044e+001 8.737109e+000 1.100000e+001
         vertex 2.240945e+001 8.671057e+000 1.100000e+001
      endloop
   endfacet
   facet normal 0.000000e+000 0.000000e+000 1.000000e+000
      outer loop
         vertex 2.240945e+001 8.671057e+000 1.100000e+001
         vertex 2.243044e+001 8.737109e+000 1.100000e+001
         vertex 2.237722e+001 8.715833e+000 1.100000e+001
      endloop
   endfacet
   facet normal 0.000000e+000 0.000000e+000 1.000000e+000
      outer loop
         vertex 2.240945e+001 8.671057e+000 1.100000e+001
         vertex 2.237722e+001 8.715833e+000 1.100000e+001
         vertex 2.234277e+001 8.607458e+000 1.100000e+001
      endloop
   endfacet
   facet normal 0.000000e+000 0.000000e+000 1.000000e+000
      outer loop
         vertex 2.234277e+001 8.607458e+000 1.100000e+001
         vertex 2.237722e+001 8.715833e+000 1.100000e+001
         vertex 2.229520e+001 8.673558e+000 1.100000e+001
      endloop
   endfacet
   facet normal 0.000000e+000 0.000000e+000 1.000000e+000
      outer loop
         vertex 2.234277e+001 8.607458e+000 1.100000e+001
         vertex 2.229520e+001 8.673558e+000 1.100000e+001
         vertex 2.224780e+001 8.524437e+000 1.100000e+001
      endloop
   endfacet
   facet normal 0.000000e+000 0.000000e+000 1.000000e+000
      outer loop
         vertex 2.224780e+001 8.524437e+000 1.100000e+001
         vertex 2.229520e+001 8.673558e+000 1.100000e+001
         vertex 2.218557e+001 8.610899e+000 1.100000e+001
      endloop
   endfacet
   facet normal 0.000000e+000 0.000000e+000 1.000000e+000
      outer loop
         vertex 2.224780e+001 8.524437e+000 1.100000e+001
         vertex 2.218557e+001 8.610899e+000 1.100000e+001
         vertex 2.212591e+001 8.423198e+000 1.100000e+001
      endloop
   endfacet
   facet normal 0.000000e+000 0.000000e+000 1.000000e+000
      outer loop
         vertex 2.212591e+001 8.423198e+000 1.100000e+001
         vertex 2.218557e+001 8.610899e+000 1.100000e+001
         vertex 2.204992e+001 8.528768e+000 1.100000e+001
      endloop
   endfacet
   facet normal 0.000000e+000 0.000000e+000 1.000000e+000
      outer loop
         vertex 2.212591e+001 8.423198e+000 1.100000e+001
         vertex 2.204992e+001 8.528768e+000 1.100000e+001
         vertex 2.197887e+001 8.305212e+000 1.100000e+001
      endloop
   endfacet
   facet normal 0.000000e+000 0.000000e+000 1.000000e+000
      outer loop
         vertex 2.197887e+001 8.305212e+000 1.100000e+001
         vertex 2.204992e+001 8.528768e+000 1.100000e+001
         vertex 2.189023e+001 8.428357e+000 1.100000e+001
      endloop
   endfacet
   facet normal 0.000000e+000 0.000000e+000 1.000000e+000
      outer loop
         vertex 2.197887e+001 8.305212e+000 1.100000e+001
         vertex 2.189023e+001 8.428357e+000 1.100000e+001
         vertex 2.180882e+001 8.172197e+000 1.100000e+001
      endloop
   endfacet
   facet normal 0.000000e+000 0.000000e+000 1.000000e+000
      outer loop
         vertex 2.180882e+001 8.172197e+000 1.100000e+001
         vertex 2.189023e+001 8.428357e+000 1.100000e+001
         vertex 2.170882e+001 8.311125e+000 1.100000e+001
      endloop
   endfacet
   facet normal 0.000000e+000 0.000000e+000 1.000000e+000
      outer loop
         vertex 2.180882e+001 8.172197e+000 1.100000e+001
         vertex 2.170882e+001 8.311125e+000 1.100000e+001
         vertex 2.161823e+001 8.026084e+000 1.100000e+001
      endloop
   endfacet
   facet normal 0.000000e+000 0.000000e+000 1.000000e+000
      outer loop
         vertex 2.161823e+001 8.026084e+000 1.100000e+001
         vertex 2.170882e+001 8.311125e+000 1.100000e+001
         vertex 2.150833e+001 8.178776e+000 1.100000e+001
      endloop
   endfacet
   facet normal 0.000000e+000 0.000000e+000 1.000000e+000
      outer loop
         vertex 2.161823e+001 8.026084e+000 1.100000e+001
         vertex 2.150833e+001 8.178776e+000 1.100000e+001
         vertex 2.140986e+001 7.868994e+000 1.100000e+001
      endloop
   endfacet
   facet normal 0.000000e+000 0.000000e+000 1.000000e+000
      outer loop
         vertex 2.140986e+001 7.868994e+000 1.100000e+001
         vertex 2.150833e+001 8.178776e+000 1.100000e+001
         vertex 2.129165e+001 8.033233e+000 1.100000e+001
      endloop
   endfacet
   facet normal 0.000000e+000 0.000000e+000 1.000000e+000
      outer loop
         vertex 2.140986e+001 7.868994e+000 1.100000e+001
         vertex 2.129165e+001 8.033233e+000 1.100000e+001
         vertex 2.118676e+001 7.703213e+000 1.100000e+001
      endloop
   endfacet
   facet normal 0.000000e+000 0.000000e+000 1.000000e+000
      outer loop
         vertex 2.118676e+001 7.703213e+000 1.100000e+001
         vertex 2.129165e+001 8.033233e+000 1.100000e+001
         vertex 2.106195e+001 7.876610e+000 1.100000e+001
      endloop
   endfacet
   facet normal 0.000000e+000 0.000000e+000 1.000000e+000
      outer loop
         vertex 2.118676e+001 7.703213e+000 1.100000e+001
         vertex 2.106195e+001 7.876610e+000 1.100000e+001
         vertex 2.095215e+001 7.531147e+000 1.100000e+001
      endloop
   endfacet
   facet normal 0.000000e+000 0.000000e+000 1.000000e+000
      outer loop
         vertex 2.095215e+001 7.531147e+000 1.100000e+001
         vertex 2.106195e+001 7.876610e+000 1.100000e+001
         vertex 2.082257e+001 7.711185e+000 1.100000e+001
      endloop
   endfacet
   facet normal 0.000000e+000 0.000000e+000 1.000000e+000
      outer loop
         vertex 2.095215e+001 7.531147e+000 1.100000e+001
         vertex 2.082257e+001 7.711185e+000 1.100000e+001
         vertex 2.070945e+001 7.355297e+000 1.100000e+001
      endloop
   endfacet
   facet normal 0.000000e+000 0.000000e+000 1.000000e+000
      outer loop
         vertex 2.070945e+001 7.355297e+000 1.100000e+001
         vertex 2.082257e+001 7.711185e+000 1.100000e+001
         vertex 2.057697e+001 7.539360e+000 1.100000e+001
      endloop
   endfacet
   facet normal 0.000000e+000 0.000000e+000 1.000000e+000
      outer loop
         vertex 2.070945e+001 7.355297e+000 1.100000e+001
         vertex 2.057697e+001 7.539360e+000 1.100000e+001
         vertex 2.046218e+001 7.178219e+000 1.100000e+001
      endloop
   endfacet
   facet normal 0.000000e+000 0.000000e+000 1.000000e+000
      outer loop
         vertex 2.046218e+001 7.178219e+000 1.100000e+001
         vertex 2.057697e+001 7.539360e+000 1.100000e+001
         vertex 2.032873e+001 7.363632e+000 1.100000e+001
      endloop
   endfacet
   facet normal 0.000000e+000 0.000000e+000 1.000000e+000
      outer loop
         vertex 2.046218e+001 7.178219e+000 1.100000e+001
         vertex 2.032873e+001 7.363632e+000 1.100000e+001
         vertex 2.021394e+001 7.002486e+000 1.100000e+001
      endloop
   endfacet
   facet normal 0.000000e+000 0.000000e+000 1.000000e+000
      outer loop
         vertex 2.021394e+001 7.002486e+000 1.100000e+001
         vertex 2.032873e+001 7.363632e+000 1.100000e+001
         vertex 2.008146e+001 7.186554e+000 1.100000e+001
      endloop
   endfacet
   facet normal 0.000000e+000 0.000000e+000 1.000000e+000
      outer loop
         vertex 2.021394e+001 7.002486e+000 1.100000e+001
         vertex 2.008146e+001 7.186554e+000 1.100000e+001
         vertex 1.996834e+001 6.830651e+000 1.100000e+001
      endloop
   endfacet
   facet normal 0.000000e+000 0.000000e+000 1.000000e+000
      outer loop
         vertex 1.996834e+001 6.830651e+000 1.100000e+001
         vertex 2.008146e+001 7.186554e+000 1.100000e+001
         vertex 1.983875e+001 7.010700e+000 1.100000e+001
      endloop
   endfacet
   facet normal 0.000000e+000 0.000000e+000 1.000000e+000
      outer loop
         vertex 1.996834e+001 6.830651e+000 1.100000e+001
         vertex 1.983875e+001 7.010700e+000 1.100000e+001
         vertex 1.972894e+001 6.665211e+000 1.100000e+001
      endloop
   endfacet
   facet normal 0.000000e+000 0.000000e+000 1.000000e+000
      outer loop
         vertex 1.972894e+001 6.665211e+000 1.100000e+001
         vertex 1.983875e+001 7.010700e+000 1.100000e+001
         vertex 1.960412e+001 6.838625e+000 1.100000e+001
      endloop
   endfacet
   facet normal 0.000000e+000 0.000000e+000 1.000000e+000
      outer loop
         vertex 1.972894e+001 6.665211e+000 1.100000e+001
         vertex 1.960412e+001 6.838625e+000 1.100000e+001
         vertex 1.949922e+001 6.508570e+000 1.100000e+001
      endloop
   endfacet
   facet normal 0.000000e+000 0.000000e+000 1.000000e+000
      outer loop
         vertex 1.949922e+001 6.508570e+000 1.100000e+001
         vertex 1.960412e+001 6.838625e+000 1.100000e+001
         vertex 1.938099e+001 6.672828e+000 1.100000e+001
      endloop
   endfacet
   facet normal 0.000000e+000 0.000000e+000 1.000000e+000
      outer loop
         vertex 1.949922e+001 6.508570e+000 1.100000e+001
         vertex 1.938099e+001 6.672828e+000 1.100000e+001
         vertex 1.928251e+001 6.363003e+000 1.100000e+001
      endloop
   endfacet
   facet normal 0.000000e+000 0.000000e+000 1.000000e+000
      outer loop
         vertex 1.928251e+001 6.363003e+000 1.100000e+001
         vertex 1.938099e+001 6.672828e+000 1.100000e+001
         vertex 1.917260e+001 6.515719e+000 1.100000e+001
      endloop
   endfacet
   facet normal 0.000000e+000 0.000000e+000 1.000000e+000
      outer loop
         vertex 1.928251e+001 6.363003e+000 1.100000e+001
         vertex 1.917260e+001 6.515719e+000 1.100000e+001
         vertex 1.908198e+001 6.230626e+000 1.100000e+001
      endloop
   endfacet
   facet normal 0.000000e+000 0.000000e+000 1.000000e+000
      outer loop
         vertex 1.908198e+001 6.230626e+000 1.100000e+001
         vertex 1.917260e+001 6.515719e+000 1.100000e+001
         vertex 1.898197e+001 6.369583e+000 1.100000e+001
      endloop
   endfacet
   facet normal 0.000000e+000 0.000000e+000 1.000000e+000
      outer loop
         vertex 1.908198e+001 6.230626e+000 1.100000e+001
         vertex 1.898197e+001 6.369583e+000 1.100000e+001
         vertex 1.890053e+001 6.113365e+000 1.100000e+001
      endloop
   endfacet
   facet normal 0.000000e+000 0.000000e+000 1.000000e+000
      outer loop
         vertex 1.890053e+001 6.113365e+000 1.100000e+001
         vertex 1.898197e+001 6.369583e+000 1.100000e+001
         vertex 1.881187e+001 6.236540e+000 1.100000e+001
      endloop
   endfacet
   facet normal 0.000000e+000 0.000000e+000 1.000000e+000
      outer loop
         vertex 1.890053e+001 6.113365e+000 1.100000e+001
         vertex 1.881187e+001 6.236540e+000 1.100000e+001
         vertex 1.874080e+001 6.012920e+000 1.100000e+001
      endloop
   endfacet
   facet normal 0.000000e+000 0.000000e+000 1.000000e+000
      outer loop
         vertex 1.874080e+001 6.012920e+000 1.100000e+001
         vertex 1.881187e+001 6.236540e+000 1.100000e+001
         vertex 1.866479e+001 6.118525e+000 1.100000e+001
      endloop
   endfacet
   facet normal 0.000000e+000 0.000000e+000 1.000000e+000
      outer loop
         vertex 1.874080e+001 6.012920e+000 1.100000e+001
         vertex 1.866479e+001 6.118525e+000 1.100000e+001
         vertex 1.860511e+001 5.930752e+000 1.100000e+001
      endloop
   endfacet
   facet normal 0.000000e+000 0.000000e+000 1.000000e+000
      outer loop
         vertex 1.860511e+001 5.930752e+000 1.100000e+001
         vertex 1.866479e+001 6.118525e+000 1.100000e+001
         vertex 1.854285e+001 6.017253e+000 1.100000e+001
      endloop
   endfacet
   facet normal 0.000000e+000 0.000000e+000 1.000000e+000
      outer loop
         vertex 1.860511e+001 5.930752e+000 1.100000e+001
         vertex 1.854285e+001 6.017253e+000 1.100000e+001
         vertex 1.849543e+001 5.868055e+000 1.100000e+001
      endloop
   endfacet
   facet normal 0.000000e+000 0.000000e+000 1.000000e+000
      outer loop
         vertex 1.849543e+001 5.868055e+000 1.100000e+001
         vertex 1.854285e+001 6.017253e+000 1.100000e+001
         vertex 1.844782e+001 5.934196e+000 1.100000e+001
      endloop
   endfacet
   facet normal 0.000000e+000 0.000000e+000 1.000000e+000
      outer loop
         vertex 1.849543e+001 5.868055e+000 1.100000e+001
         vertex 1.844782e+001 5.934196e+000 1.100000e+001
         vertex 1.841335e+001 5.825739e+000 1.100000e+001
      endloop
   endfacet
   facet normal 0.000000e+000 0.000000e+000 1.000000e+000
      outer loop
         vertex 1.841335e+001 5.825739e+000 1.100000e+001
         vertex 1.844782e+001 5.934196e+000 1.100000e+001
         vertex 1.838109e+001 5.870558e+000 1.100000e+001
      endloop
   endfacet
   facet normal 0.000000e+000 0.000000e+000 1.000000e+000
      outer loop
         vertex 1.841335e+001 5.825739e+000 1.100000e+001
         vertex 1.838109e+001 5.870558e+000 1.100000e+001
         vertex 1.836007e+001 5.804421e+000 1.100000e+001
      endloop
   endfacet
   facet normal 0.000000e+000 0.000000e+000 1.000000e+000
      outer loop
         vertex 1.836007e+001 5.804421e+000 1.100000e+001
         vertex 1.838109e+001 5.870558e+000 1.100000e+001
         vertex 1.834762e+001 5.801907e+000 1.100000e+001
      endloop
   endfacet
   facet normal 0.000000e+000 0.000000e+000 -1.000000e+000
      outer loop
         vertex 2.245292e+001 8.738147e+000 3.000000e+000
         vertex 2.245510e+001 8.735094e+000 3.000000e+000
         vertex 2.240945e+001 8.671057e+000 3.000000e+000
      endloop
   endfacet
   facet normal 0.000000e+000 0.000000e+000 -1.000000e+000
      outer loop
         vertex 2.240945e+001 8.671057e+000 3.000000e+000
         vertex 2.245030e+001 8.739289e+000 3.000000e+000
         vertex 2.245292e+001 8.738147e+000 3.000000e+000
      endloop
   endfacet
   facet normal 0.000000e+000 0.000000e+000 -1.000000e+000
      outer loop
         vertex 1.834270e+001 5.801812e+000 3.000000e+000
         vertex 1.833858e+001 5.802765e+000 3.000000e+000
         vertex 1.838109e+001 5.870558e+000 3.000000e+000
      endloop
   endfacet
   facet normal 0.000000e+000 0.000000e+000 -1.000000e+000
      outer loop
         vertex 1.838109e+001 5.870558e+000 3.000000e+000
         vertex 1.833858e+001 5.802765e+000 3.000000e+000
         vertex 1.833615e+001 5.804693e+000 3.000000e+000
      endloop
   endfacet
   facet normal 0.000000e+000 0.000000e+000 -1.000000e+000
      outer loop
         vertex 1.838109e+001 5.870558e+000 3.000000e+000
         vertex 1.833615e+001 5.804693e+000 3.000000e+000
         vertex 1.833512e+001 5.807616e+000 3.000000e+000
      endloop
   endfacet
   facet normal 0.000000e+000 0.000000e+000 -1.000000e+000
      outer loop
         vertex 2.240945e+001 8.671057e+000 3.000000e+000
         vertex 2.245510e+001 8.735094e+000 3.000000e+000
         vertex 2.245532e+001 8.732252e+000 3.000000e+000
      endloop
   endfacet
   facet normal 0.000000e+000 0.000000e+000 -1.000000e+000
      outer loop
         vertex 1.833512e+001 5.807616e+000 3.000000e+000
         vertex 1.833556e+001 5.811809e+000 3.000000e+000
         vertex 1.838109e+001 5.870558e+000 3.000000e+000
      endloop
   endfacet
   facet normal 0.000000e+000 0.000000e+000 -1.000000e+000
      outer loop
         vertex 1.838109e+001 5.870558e+000 3.000000e+000
         vertex 1.833556e+001 5.811809e+000 3.000000e+000
         vertex 1.833724e+001 5.816404e+000 3.000000e+000
      endloop
   endfacet
   facet normal 0.000000e+000 0.000000e+000 -1.000000e+000
      outer loop
         vertex 1.838109e+001 5.870558e+000 3.000000e+000
         vertex 1.833724e+001 5.816404e+000 3.000000e+000
         vertex 1.834363e+001 5.827267e+000 3.000000e+000
      endloop
   endfacet
   facet normal 0.000000e+000 0.000000e+000 -1.000000e+000
      outer loop
         vertex 2.243044e+001 8.737109e+000 3.000000e+000
         vertex 2.244284e+001 8.739606e+000 3.000000e+000
         vertex 2.240945e+001 8.671057e+000 3.000000e+000
      endloop
   endfacet
   facet normal 0.000000e+000 0.000000e+000 -1.000000e+000
      outer loop
         vertex 2.240945e+001 8.671057e+000 3.000000e+000
         vertex 2.244284e+001 8.739606e+000 3.000000e+000
         vertex 2.244775e+001 8.739698e+000 3.000000e+000
      endloop
   endfacet
   facet normal 0.000000e+000 0.000000e+000 -1.000000e+000
      outer loop
         vertex 2.240945e+001 8.671057e+000 3.000000e+000
         vertex 2.244775e+001 8.739698e+000 3.000000e+000
         vertex 2.245030e+001 8.739289e+000 3.000000e+000
      endloop
   endfacet
   facet normal 0.000000e+000 0.000000e+000 -1.000000e+000
      outer loop
         vertex 2.245532e+001 8.732252e+000 3.000000e+000
         vertex 2.245488e+001 8.729715e+000 3.000000e+000
         vertex 2.240945e+001 8.671057e+000 3.000000e+000
      endloop
   endfacet
   facet normal 0.000000e+000 0.000000e+000 -1.000000e+000
      outer loop
         vertex 2.240945e+001 8.671057e+000 3.000000e+000
         vertex 2.245488e+001 8.729715e+000 3.000000e+000
         vertex 2.245320e+001 8.725131e+000 3.000000e+000
      endloop
   endfacet
   facet normal 0.000000e+000 0.000000e+000 -1.000000e+000
      outer loop
         vertex 2.240945e+001 8.671057e+000 3.000000e+000
         vertex 2.245320e+001 8.725131e+000 3.000000e+000
         vertex 2.244685e+001 8.714309e+000 3.000000e+000
      endloop
   endfacet
   facet normal 0.000000e+000 0.000000e+000 -1.000000e+000
      outer loop
         vertex 1.841335e+001 5.825739e+000 3.000000e+000
         vertex 1.836007e+001 5.804421e+000 3.000000e+000
         vertex 1.838109e+001 5.870558e+000 3.000000e+000
      endloop
   endfacet
   facet normal 0.000000e+000 0.000000e+000 -1.000000e+000
      outer loop
         vertex 1.838109e+001 5.870558e+000 3.000000e+000
         vertex 1.836007e+001 5.804421e+000 3.000000e+000
         vertex 1.834762e+001 5.801907e+000 3.000000e+000
      endloop
   endfacet
   facet normal 0.000000e+000 0.000000e+000 -1.000000e+000
      outer loop
         vertex 1.838109e+001 5.870558e+000 3.000000e+000
         vertex 1.834762e+001 5.801907e+000 3.000000e+000
         vertex 1.834270e+001 5.801812e+000 3.000000e+000
      endloop
   endfacet
   facet normal 0.000000e+000 0.000000e+000 -1.000000e+000
      outer loop
         vertex 1.841335e+001 5.825739e+000 3.000000e+000
         vertex 1.838109e+001 5.870558e+000 3.000000e+000
         vertex 1.849543e+001 5.868055e+000 3.000000e+000
      endloop
   endfacet
   facet normal 0.000000e+000 0.000000e+000 -1.000000e+000
      outer loop
         vertex 1.849543e+001 5.868055e+000 3.000000e+000
         vertex 1.838109e+001 5.870558e+000 3.000000e+000
         vertex 1.844782e+001 5.934196e+000 3.000000e+000
      endloop
   endfacet
   facet normal 0.000000e+000 0.000000e+000 -1.000000e+000
      outer loop
         vertex 1.849543e+001 5.868055e+000 3.000000e+000
         vertex 1.844782e+001 5.934196e+000 3.000000e+000
         vertex 1.860511e+001 5.930752e+000 3.000000e+000
      endloop
   endfacet
   facet normal 0.000000e+000 0.000000e+000 -1.000000e+000
      outer loop
         vertex 1.860511e+001 5.930752e+000 3.000000e+000
         vertex 1.844782e+001 5.934196e+000 3.000000e+000
         vertex 1.854285e+001 6.017253e+000 3.000000e+000
      endloop
   endfacet
   facet normal 0.000000e+000 0.000000e+000 -1.000000e+000
      outer loop
         vertex 1.860511e+001 5.930752e+000 3.000000e+000
         vertex 1.854285e+001 6.017253e+000 3.000000e+000
         vertex 1.874080e+001 6.012920e+000 3.000000e+000
      endloop
   endfacet
   facet normal 0.000000e+000 0.000000e+000 -1.000000e+000
      outer loop
         vertex 1.874080e+001 6.012920e+000 3.000000e+000
         vertex 1.854285e+001 6.017253e+000 3.000000e+000
         vertex 1.866479e+001 6.118525e+000 3.000000e+000
      endloop
   endfacet
   facet normal 0.000000e+000 0.000000e+000 -1.000000e+000
      outer loop
         vertex 1.874080e+001 6.012920e+000 3.000000e+000
         vertex 1.866479e+001 6.118525e+000 3.000000e+000
         vertex 1.890053e+001 6.113365e+000 3.000000e+000
      endloop
   endfacet
   facet normal 0.000000e+000 0.000000e+000 -1.000000e+000
      outer loop
         vertex 1.890053e+001 6.113365e+000 3.000000e+000
         vertex 1.866479e+001 6.118525e+000 3.000000e+000
         vertex 1.881187e+001 6.236540e+000 3.000000e+000
      endloop
   endfacet
   facet normal 0.000000e+000 0.000000e+000 -1.000000e+000
      outer loop
         vertex 1.890053e+001 6.113365e+000 3.000000e+000
         vertex 1.881187e+001 6.236540e+000 3.000000e+000
         vertex 1.908198e+001 6.230626e+000 3.000000e+000
      endloop
   endfacet
   facet normal 0.000000e+000 0.000000e+000 -1.000000e+000
      outer loop
         vertex 1.908198e+001 6.230626e+000 3.000000e+000
         vertex 1.881187e+001 6.236540e+000 3.000000e+000
         vertex 1.898197e+001 6.369583e+000 3.000000e+000
      endloop
   endfacet
   facet normal 0.000000e+000 0.000000e+000 -1.000000e+000
      outer loop
         vertex 1.908198e+001 6.230626e+000 3.000000e+000
         vertex 1.898197e+001 6.369583e+000 3.000000e+000
         vertex 1.928251e+001 6.363003e+000 3.000000e+000
      endloop
   endfacet
   facet normal 0.000000e+000 0.000000e+000 -1.000000e+000
      outer loop
         vertex 1.928251e+001 6.363003e+000 3.000000e+000
         vertex 1.898197e+001 6.369583e+000 3.000000e+000
         vertex 1.917260e+001 6.515719e+000 3.000000e+000
      endloop
   endfacet
   facet normal 0.000000e+000 0.000000e+000 -1.000000e+000
      outer loop
         vertex 1.928251e+001 6.363003e+000 3.000000e+000
         vertex 1.917260e+001 6.515719e+000 3.000000e+000
         vertex 1.949922e+001 6.508570e+000 3.000000e+000
      endloop
   endfacet
   facet normal 0.000000e+000 0.000000e+000 -1.000000e+000
      outer loop
         vertex 1.949922e+001 6.508570e+000 3.000000e+000
         vertex 1.917260e+001 6.515719e+000 3.000000e+000
         vertex 1.938099e+001 6.672828e+000 3.000000e+000
      endloop
   endfacet
   facet normal 0.000000e+000 0.000000e+000 -1.000000e+000
      outer loop
         vertex 1.949922e+001 6.508570e+000 3.000000e+000
         vertex 1.938099e+001 6.672828e+000 3.000000e+000
         vertex 1.972894e+001 6.665211e+000 3.000000e+000
      endloop
   endfacet
   facet normal 0.000000e+000 0.000000e+000 -1.000000e+000
      outer loop
         vertex 1.972894e+001 6.665211e+000 3.000000e+000
         vertex 1.938099e+001 6.672828e+000 3.000000e+000
         vertex 1.960412e+001 6.838625e+000 3.000000e+000
      endloop
   endfacet
   facet normal 0.000000e+000 0.000000e+000 -1.000000e+000
      outer loop
         vertex 1.972894e+001 6.665211e+000 3.000000e+000
         vertex 1.960412e+001 6.838625e+000 3.000000e+000
         vertex 1.996834e+001 6.830651e+000 3.000000e+000
      endloop
   endfacet
   facet normal 0.000000e+000 0.000000e+000 -1.000000e+000
      outer loop
         vertex 1.996834e+001 6.830651e+000 3.000000e+000
         vertex 1.960412e+001 6.838625e+000 3.000000e+000
         vertex 1.983875e+001 7.010700e+000 3.000000e+000
      endloop
   endfacet
   facet normal 0.000000e+000 0.000000e+000 -1.000000e+000
      outer loop
         vertex 1.996834e+001 6.830651e+000 3.000000e+000
         vertex 1.983875e+001 7.010700e+000 3.000000e+000
         vertex 2.021394e+001 7.002486e+000 3.000000e+000
      endloop
   endfacet
   facet normal 0.000000e+000 0.000000e+000 -1.000000e+000
      outer loop
         vertex 2.021394e+001 7.002486e+000 3.000000e+000
         vertex 1.983875e+001 7.010700e+000 3.000000e+000
         vertex 2.008146e+001 7.186554e+000 3.000000e+000
      endloop
   endfacet
   facet normal 0.000000e+000 0.000000e+000 -1.000000e+000
      outer loop
         vertex 2.021394e+001 7.002486e+000 3.000000e+000
         vertex 2.008146e+001 7.186554e+000 3.000000e+000
         vertex 2.046218e+001 7.178219e+000 3.000000e+000
      endloop
   endfacet
   facet normal 0.000000e+000 0.000000e+000 -1.000000e+000
      outer loop
         vertex 2.046218e+001 7.178219e+000 3.000000e+000
         vertex 2.008146e+001 7.186554e+000 3.000000e+000
         vertex 2.032873e+001 7.363632e+000 3.000000e+000
      endloop
   endfacet
   facet normal 0.000000e+000 0.000000e+000 -1.000000e+000
      outer loop
         vertex 2.046218e+001 7.178219e+000 3.000000e+000
         vertex 2.032873e+001 7.363632e+000 3.000000e+000
         vertex 2.070945e+001 7.355297e+000 3.000000e+000
      endloop
   endfacet
   facet normal 0.000000e+000 0.000000e+000 -1.000000e+000
      outer loop
         vertex 2.070945e+001 7.355297e+000 3.000000e+000
         vertex 2.032873e+001 7.363632e+000 3.000000e+000
         vertex 2.057697e+001 7.539360e+000 3.000000e+000
      endloop
   endfacet
   facet normal 0.000000e+000 0.000000e+000 -1.000000e+000
      outer loop
         vertex 2.070945e+001 7.355297e+000 3.000000e+000
         vertex 2.057697e+001 7.539360e+000 3.000000e+000
         vertex 2.095215e+001 7.531147e+000 3.000000e+000
      endloop
   endfacet
   facet normal 0.000000e+000 0.000000e+000 -1.000000e+000
      outer loop
         vertex 2.095215e+001 7.531147e+000 3.000000e+000
         vertex 2.057697e+001 7.539360e+000 3.000000e+000
         vertex 2.082257e+001 7.711185e+000 3.000000e+000
      endloop
   endfacet
   facet normal 0.000000e+000 0.000000e+000 -1.000000e+000
      outer loop
         vertex 2.095215e+001 7.531147e+000 3.000000e+000
         vertex 2.082257e+001 7.711185e+000 3.000000e+000
         vertex 2.118676e+001 7.703213e+000 3.000000e+000
      endloop
   endfacet
   facet normal 0.000000e+000 0.000000e+000 -1.000000e+000
      outer loop
         vertex 2.118676e+001 7.703213e+000 3.000000e+000
         vertex 2.082257e+001 7.711185e+000 3.000000e+000
         vertex 2.106195e+001 7.876610e+000 3.000000e+000
      endloop
   endfacet
   facet normal 0.000000e+000 0.000000e+000 -1.000000e+000
      outer loop
         vertex 2.118676e+001 7.703213e+000 3.000000e+000
         vertex 2.106195e+001 7.876610e+000 3.000000e+000
         vertex 2.140986e+001 7.868994e+000 3.000000e+000
      endloop
   endfacet
   facet normal 0.000000e+000 0.000000e+000 -1.000000e+000
      outer loop
         vertex 2.140986e+001 7.868994e+000 3.000000e+000
         vertex 2.106195e+001 7.876610e+000 3.000000e+000
         vertex 2.129165e+001 8.033233e+000 3.000000e+000
      endloop
   endfacet
   facet normal 0.000000e+000 0.000000e+000 -1.000000e+000
      outer loop
         vertex 2.140986e+001 7.868994e+000 3.000000e+000
         vertex 2.129165e+001 8.033233e+000 3.000000e+000
         vertex 2.161823e+001 8.026084e+000 3.000000e+000
      endloop
   endfacet
   facet normal 0.000000e+000 0.000000e+000 -1.000000e+000
      outer loop
         vertex 2.161823e+001 8.026084e+000 3.000000e+000
         vertex 2.129165e+001 8.033233e+000 3.000000e+000
         vertex 2.150833e+001 8.178776e+000 3.000000e+000
      endloop
   endfacet
   facet normal 0.000000e+000 0.000000e+000 -1.000000e+000
      outer loop
         vertex 2.161823e+001 8.026084e+000 3.000000e+000
         vertex 2.150833e+001 8.178776e+000 3.000000e+000
         vertex 2.180882e+001 8.172197e+000 3.000000e+000
      endloop
   endfacet
   facet normal 0.000000e+000 0.000000e+000 -1.000000e+000
      outer loop
         vertex 2.180882e+001 8.172197e+000 3.000000e+000
         vertex 2.150833e+001 8.178776e+000 3.000000e+000
         vertex 2.170882e+001 8.311125e+000 3.000000e+000
      endloop
   endfacet
   facet normal 0.000000e+000 0.000000e+000 -1.000000e+000
      outer loop
         vertex 2.180882e+001 8.172197e+000 3.000000e+000
         vertex 2.170882e+001 8.311125e+000 3.000000e+000
         vertex 2.197887e+001 8.305212e+000 3.000000e+000
      endloop
   endfacet
   facet normal 0.000000e+000 0.000000e+000 -1.000000e+000
      outer loop
         vertex 2.197887e+001 8.305212e+000 3.000000e+000
         vertex 2.170882e+001 8.311125e+000 3.000000e+000
         vertex 2.189023e+001 8.428357e+000 3.000000e+000
      endloop
   endfacet
   facet normal 0.000000e+000 0.000000e+000 -1.000000e+000
      outer loop
         vertex 2.197887e+001 8.305212e+000 3.000000e+000
         vertex 2.189023e+001 8.428357e+000 3.000000e+000
         vertex 2.212591e+001 8.423198e+000 3.000000e+000
      endloop
   endfacet
   facet normal 0.000000e+000 0.000000e+000 -1.000000e+000
      outer loop
         vertex 2.212591e+001 8.423198e+000 3.000000e+000
         vertex 2.189023e+001 8.428357e+000 3.000000e+000
         vertex 2.204992e+001 8.528768e+000 3.000000e+000
      endloop
   endfacet
   facet normal 0.000000e+000 0.000000e+000 -1.000000e+000
      outer loop
         vertex 2.212591e+001 8.423198e+000 3.000000e+000
         vertex 2.204992e+001 8.528768e+000 3.000000e+000
         vertex 2.224780e+001 8.524437e+000 3.000000e+000
      endloop
   endfacet
   facet normal 0.000000e+000 0.000000e+000 -1.000000e+000
      outer loop
         vertex 2.224780e+001 8.524437e+000 3.000000e+000
         vertex 2.204992e+001 8.528768e+000 3.000000e+000
         vertex 2.218557e+001 8.610899e+000 3.000000e+000
      endloop
   endfacet
   facet normal 0.000000e+000 0.000000e+000 -1.000000e+000
      outer loop
         vertex 2.224780e+001 8.524437e+000 3.000000e+000
         vertex 2.218557e+001 8.610899e+000 3.000000e+000
         vertex 2.234277e+001 8.607458e+000 3.000000e+000
      endloop
   endfacet
   facet normal 0.000000e+000 0.000000e+000 -1.000000e+000
      outer loop
         vertex 2.234277e+001 8.607458e+000 3.000000e+000
         vertex 2.218557e+001 8.610899e+000 3.000000e+000
         vertex 2.229520e+001 8.673558e+000 3.000000e+000
      endloop
   endfacet
   facet normal 0.000000e+000 0.000000e+000 -1.000000e+000
      outer loop
         vertex 2.234277e+001 8.607458e+000 3.000000e+000
         vertex 2.229520e+001 8.673558e+000 3.000000e+000
         vertex 2.240945e+001 8.671057e+000 3.000000e+000
      endloop
   endfacet
   facet normal 0.000000e+000 0.000000e+000 -1.000000e+000
      outer loop
         vertex 2.240945e+001 8.671057e+000 3.000000e+000
         vertex 2.229520e+001 8.673558e+000 3.000000e+000
         vertex 2.237722e+001 8.715833e+000 3.000000e+000
      endloop
   endfacet
   facet normal 0.000000e+000 0.000000e+000 -1.000000e+000
      outer loop
         vertex 2.240945e+001 8.671057e+000 3.000000e+000
         vertex 2.237722e+001 8.715833e+000 3.000000e+000
         vertex 2.243044e+001 8.737109e+000 3.000000e+000
      endloop
   endfacet
endsolid